<?xml version="1.0" encoding="utf-8"?>
<!-- Generator: Adobe Illustrator 24.0.0, SVG Export Plug-In . SVG Version: 6.00 Build 0)  -->
<svg version="1.1" id="Layer_1" xmlns="http://www.w3.org/2000/svg" xmlns:xlink="http://www.w3.org/1999/xlink" x="0px" y="0px"
	 viewBox="0 0 128 128" style="enable-background:new 0 0 128 128;" xml:space="preserve">
<style type="text/css">
	.st0{fill:#E16C96;}
	.st1{fill:#FFFFFF;}
</style>
<path class="st0" d="M103,128H25c-13.8,0-25-11.2-25-25V25C0,11.2,11.2,0,25,0h78c13.8,0,25,11.2,25,25v78
	C128,116.8,116.8,128,103,128z"/>
<path class="st1" d="M89.6,99.5l-30.9,7.9c-4.6,1.2-9.4-2.3-10.8-7.8L32.7,40.5c-1.4-5.5,1.2-10.8,5.7-12l30.9-7.9
	c4.6-1.2,9.4,2.3,10.8,7.8l15.2,59.2C96.7,93,94.2,98.4,89.6,99.5z M75.3,29.5c-0.7-2.6-3-4.3-5.2-3.8l-29.9,7.7
	c-2.2,0.6-3.4,3.2-2.8,5.8l0.6,2.4L76,31.9C76,31.9,75.3,29.5,75.3,29.5z M77.4,37.6l-37.9,9.7l9.8,38.2l37.9-9.7
	C87.2,75.8,77.4,37.6,77.4,37.6z M88.7,81.6l-37.9,9.7l1.8,7.2c0.7,2.6,3,4.3,5.2,3.8l29.9-7.7c2.2-0.6,3.4-3.2,2.8-5.8
	C90.5,88.7,88.7,81.6,88.7,81.6z M72.1,95.7c-1.7,0.4-3.4-0.5-3.9-2.5c-0.5-2,0.5-3.8,2.2-4.2c1.7-0.4,3.5,0.6,4,2.7
	C74.9,93.6,73.9,95.3,72.1,95.7z"/>
<path class="st1" d="M52.4,55.8l-5.7,1.5c-0.7,0.2-1.3-0.2-1.5-0.9l-1.5-5.7c-0.2-0.7,0.2-1.3,0.9-1.5l5.7-1.5
	c0.7-0.2,1.3,0.2,1.5,0.9l1.5,5.7C53.5,54.9,53.1,55.6,52.4,55.8z M64.2,52.8l-5.7,1.5c-0.7,0.2-1.3-0.2-1.5-0.9l-1.5-5.7
	c-0.2-0.7,0.2-1.3,0.9-1.5l5.7-1.5c0.7-0.2,1.3,0.2,1.5,0.9l1.5,5.7C65.2,51.9,64.8,52.6,64.2,52.8z M75.9,49.7l-5.7,1.5
	c-0.7,0.2-1.3-0.2-1.5-0.9l-1.5-5.7c-0.2-0.7,0.2-1.3,0.9-1.5l5.7-1.5c0.7-0.2,1.3,0.2,1.5,0.9l1.5,5.7C77,48.9,76.6,49.6,75.9,49.7
	z M55.2,66.6L49.5,68c-0.7,0.2-1.3-0.2-1.5-0.9l-1.5-5.7c-0.2-0.7,0.2-1.3,0.9-1.5l5.7-1.5c0.7-0.2,1.3,0.2,1.5,0.9l1.5,5.7
	C56.2,65.7,55.8,66.4,55.2,66.6z M66.9,63.5L61.3,65c-0.7,0.2-1.3-0.2-1.5-0.9l-1.5-5.7c-0.2-0.7,0.2-1.3,0.9-1.5l5.7-1.5
	c0.7-0.2,1.3,0.2,1.5,0.9l1.5,5.7C68,62.7,67.6,63.4,66.9,63.5z M78.7,60.5L73,62c-0.7,0.2-1.3-0.2-1.5-0.9L70,55.4
	c-0.2-0.7,0.2-1.3,0.9-1.5l5.7-1.5c0.7-0.2,1.3,0.2,1.5,0.9l1.5,5.7C79.8,59.7,79.4,60.3,78.7,60.5z M57.9,77.3l-5.7,1.5
	c-0.7,0.2-1.3-0.2-1.5-0.9l-1.5-5.7c-0.2-0.7,0.2-1.3,0.9-1.5l5.7-1.5c0.7-0.2,1.3,0.2,1.5,0.9l1.5,5.7C59,76.5,58.6,77.2,57.9,77.3
	z"/>
</svg>
