<?xml version="1.0" standalone="no"?><!DOCTYPE svg PUBLIC "-//W3C//DTD SVG 1.1//EN" "http://www.w3.org/Graphics/SVG/1.1/DTD/svg11.dtd"><svg t="1580542520788" class="icon" viewBox="0 0 1024 1024" version="1.1" xmlns="http://www.w3.org/2000/svg" p-id="3145" xmlns:xlink="http://www.w3.org/1999/xlink" width="128" height="128"><defs><style type="text/css"></style></defs><path d="M523.4176 212.8384a23.552 23.552 0 0 0-23.04 0L237.6192 360.448a22.3744 22.3744 0 0 0-11.52 19.456c0 8.0896 4.4032 15.5136 11.52 19.5072l262.7584 147.6096a23.552 23.552 0 0 0 23.04 0L786.176 399.36a22.3744 22.3744 0 0 0 11.52-19.456 22.3744 22.3744 0 0 0-11.52-19.456l-262.7584-147.6096z m226.304 253.5936l28.8256-48.7424 36.352 20.48c25.088 14.0288 40.448 40.0384 40.448 68.1984a78.336 78.336 0 0 1-40.448 68.2496l-262.7072 147.6096a82.432 82.432 0 0 1-80.5376 0L208.896 574.6176a78.336 78.336 0 0 1-40.448-68.2496c0-28.16 15.4112-54.1696 40.448-68.1984l38.6048-21.6576 28.7232 48.7424-38.6048 21.6576a22.3744 22.3744 0 0 0-11.52 19.456c0 8.0384 4.4032 15.4624 11.52 19.456l262.7584 147.6608a23.552 23.552 0 0 0 23.04 0l262.7584-147.6096a22.3744 22.3744 0 0 0 11.52-19.456 22.3744 22.3744 0 0 0-11.52-19.5072l-36.4544-20.48z m-502.272 87.7568l28.7744 48.7424-38.6048 21.6576a22.3744 22.3744 0 0 0-11.5712 19.456c0 8.0896 4.4544 15.5136 11.5712 19.5584l262.7584 147.5584a23.552 23.552 0 0 0 23.04 0l262.7584-147.5584a22.3744 22.3744 0 0 0 11.5712-19.5072 22.3744 22.3744 0 0 0-11.5712-19.5072l-36.4544-20.48 28.8256-48.64 36.352 20.4288c25.0368 14.0288 40.448 40.0384 40.448 68.1984s-15.4112 54.1184-40.448 68.1472l-262.7072 147.6608a82.432 82.432 0 0 1-80.5376 0L208.896 712.192a78.336 78.336 0 0 1-40.3968-68.1472c0-28.16 15.36-54.1696 40.3968-68.1984l38.6048-21.7088z m304.7424-390.0928l262.7584 147.5584c24.9856 14.08 40.448 40.0896 40.448 68.2496a78.336 78.336 0 0 1-40.448 68.1984l-262.7584 147.6096a82.432 82.432 0 0 1-80.5376 0L208.896 448.1024a78.336 78.336 0 0 1-40.448-68.1984c0-28.16 15.4112-54.1696 40.448-68.2496l262.7584-147.5584a82.432 82.432 0 0 1 80.5376 0z" p-id="3146" fill="#E16C96"></path></svg>