<?xml version="1.0" standalone="no"?><!DOCTYPE svg PUBLIC "-//W3C//DTD SVG 1.1//EN" "http://www.w3.org/Graphics/SVG/1.1/DTD/svg11.dtd"><svg t="1582632542291" class="icon" viewBox="0 0 1028 1024" version="1.1" xmlns="http://www.w3.org/2000/svg" p-id="6194" xmlns:xlink="http://www.w3.org/1999/xlink" width="64.25" height="64"><defs><style type="text/css"></style></defs><path d="M276.569236 394.380699A83.270843 83.270843 0 0 1 276.569236 511.99949l-58.809395 58.911319a166.439763 166.439763 0 1 0 235.441427 235.441427L512.010664 747.440918a83.270843 83.270843 0 1 1 117.618791 117.720714l-58.809395 58.911318a332.981448 332.981448 0 1 1-470.882856-470.882855l58.809396-58.809396a83.270843 83.270843 0 0 1 117.822636 0z m117.720714-235.645273l58.809396-58.809396a332.981448 332.981448 0 1 1 470.882855 470.882856l-58.809395 58.809396A83.270843 83.270843 0 1 1 747.452092 511.99949l58.809395-58.809395a166.439763 166.439763 0 1 0-235.441427-235.441428L512.010664 276.659985a83.270843 83.270843 0 1 1-117.720714-117.720714v-0.203845z m-58.911318 412.175383l235.441428-235.441428a83.270843 83.270843 0 1 1 117.822636 117.720714l-235.441428 235.441428a83.270843 83.270843 0 0 1-117.822636-117.720714z" p-id="6195" fill="#E16C96"></path></svg>