<?xml version="1.0" standalone="no"?><!DOCTYPE svg PUBLIC "-//W3C//DTD SVG 1.1//EN" "http://www.w3.org/Graphics/SVG/1.1/DTD/svg11.dtd"><svg t="1580483781248" class="icon" viewBox="0 0 1024 1024" version="1.1" xmlns="http://www.w3.org/2000/svg" p-id="6711" xmlns:xlink="http://www.w3.org/1999/xlink" width="128" height="128"><defs><style type="text/css"></style></defs><path d="M864.711111 56.888889c56.888889 0 102.4 45.511111 102.4 102.4v585.955555c0 56.888889-45.511111 102.4-102.4 102.4h-147.911111v11.377778c0 56.888889-45.511111 102.4-102.4 102.4H164.977778c-56.888889 0-108.088889-45.511111-108.088889-102.4V278.755556C56.888889 216.177778 102.4 170.666667 159.288889 170.666667h147.911111v-5.688889c0-56.888889 45.511111-102.4 102.4-102.4l455.111111-5.688889zM164.977778 898.844444h449.422222c22.755556 0 34.133333-17.066667 34.133333-34.133333V278.755556c0-22.755556-17.066667-34.133333-34.133333-34.133334H164.977778c-22.755556 0-34.133333 17.066667-34.133334 34.133334v585.955555c-5.688889 17.066667 11.377778 34.133333 34.133334 34.133333z m733.866666-147.911111V164.977778c0-22.755556-17.066667-34.133333-34.133333-34.133334H415.288889c-22.755556 0-34.133333 17.066667-34.133333 34.133334V170.666667h238.933333c56.888889 0 102.4 45.511111 102.4 102.4v512h147.911111c11.377778 0 28.444444-17.066667 28.444444-34.133334zM523.377778 375.466667c17.066667 0 34.133333 17.066667 34.133333 34.133333s-17.066667 34.133333-34.133333 34.133333H250.311111c-17.066667 0-34.133333-17.066667-34.133333-34.133333s17.066667-34.133333 34.133333-34.133333h273.066667z m0 159.288889c17.066667 0 34.133333 17.066667 34.133333 34.133333s-17.066667 34.133333-34.133333 34.133333H250.311111c-17.066667 0-34.133333-17.066667-34.133333-34.133333s17.066667-34.133333 34.133333-34.133333h273.066667z m-91.022222 159.288888c17.066667 0 34.133333 17.066667 34.133333 34.133334s-17.066667 34.133333-34.133333 34.133333H250.311111c-17.066667 0-34.133333-17.066667-34.133333-34.133333s17.066667-34.133333 34.133333-34.133334h182.044445z" p-id="6712" fill="#E16C96"></path></svg>