<?xml version="1.0" standalone="no"?><!DOCTYPE svg PUBLIC "-//W3C//DTD SVG 1.1//EN" "http://www.w3.org/Graphics/SVG/1.1/DTD/svg11.dtd"><svg t="1583592655775" class="icon" viewBox="0 0 1024 1024" version="1.1" xmlns="http://www.w3.org/2000/svg" p-id="1755" xmlns:xlink="http://www.w3.org/1999/xlink" width="64" height="64"><defs><style type="text/css"></style></defs><path d="M819.2 896H204.8C138.666667 896 85.333333 842.666667 85.333333 778.666667v-533.333334C85.333333 181.333333 138.666667 128 204.8 128h206.933333c14.933333 0 27.733333 6.4 34.133334 19.2l68.266666 98.133333h305.066667c66.133333 0 119.466667 53.333333 119.466667 117.333334v418.133333c0 61.866667-53.333333 115.2-119.466667 115.2zM204.8 213.333333c-19.2 0-34.133333 14.933333-34.133333 32v535.466667c0 14.933333 14.933333 29.866667 34.133333 29.866667h614.4c19.2 0 34.133333-14.933333 34.133333-32V362.666667c0-17.066667-14.933333-32-34.133333-32H492.8c-14.933333 0-27.733333-6.4-34.133333-19.2L388.266667 213.333333H204.8z" p-id="1756" fill="#E16C96"></path><path d="M618.666667 618.666667H405.333333c-23.466667 0-42.666667-19.2-42.666666-42.666667s19.2-42.666667 42.666666-42.666667h213.333334c23.466667 0 42.666667 19.2 42.666666 42.666667s-19.2 42.666667-42.666666 42.666667z" p-id="1757" fill="#E16C96"></path><path d="M512 725.333333c-23.466667 0-42.666667-19.2-42.666667-42.666666V469.333333c0-23.466667 19.2-42.666667 42.666667-42.666666s42.666667 19.2 42.666667 42.666666v213.333334c0 23.466667-19.2 42.666667-42.666667 42.666666z" p-id="1758" fill="#E16C96"></path></svg>