<?xml version="1.0" standalone="no"?><!DOCTYPE svg PUBLIC "-//W3C//DTD SVG 1.1//EN" "http://www.w3.org/Graphics/SVG/1.1/DTD/svg11.dtd"><svg t="1580708913801" class="icon" viewBox="0 0 1024 1024" version="1.1" xmlns="http://www.w3.org/2000/svg" p-id="3202" xmlns:xlink="http://www.w3.org/1999/xlink" width="128" height="128"><defs><style type="text/css"></style></defs><path d="M235.5 542a32 32 0 1 0 9 63.36l85.5-12.18a180.42 180.42 0 0 0 21.62 78l-71.02 47.38a32 32 0 1 0 35.4 53.22l75.28-50.2a175.64 175.64 0 0 0 166.48 39.88L325.54 529.16zM512 16C238 16 16 238 16 512s222 496 496 496 496-222 496-496S786 16 512 16z m0 896c-220.56 0-400-179.44-400-400a397.72 397.72 0 0 1 85.62-246.5l560.88 560.88A397.72 397.72 0 0 1 512 912z m314.38-153.5L690 622.16a179.28 179.28 0 0 0 4-28.98l85.46 12.22a32 32 0 1 0 9-63.36l-93.64-13.38v-49.3l93.64-13.4a32 32 0 1 0-9-63.36l-87.04 12.44a180.3 180.3 0 0 0-20-62.2l71.02-47.38A32 32 0 1 0 708 252.22l-75.28 50.2a180.54 180.54 0 0 0-252.16 10.2l-115-115A397.72 397.72 0 0 1 512 112c220.56 0 400 179.44 400 400a397.72 397.72 0 0 1-85.62 246.5z" p-id="3203" fill="#E16C96"></path></svg>