<?xml version="1.0" standalone="no"?><!DOCTYPE svg PUBLIC "-//W3C//DTD SVG 1.1//EN" "http://www.w3.org/Graphics/SVG/1.1/DTD/svg11.dtd"><svg t="1583589149305" class="icon" viewBox="0 0 1024 1024" version="1.1" xmlns="http://www.w3.org/2000/svg" p-id="2295" xmlns:xlink="http://www.w3.org/1999/xlink" width="64" height="64"><defs><style type="text/css"></style></defs><path d="M842.666667 853.333333H337.066667c-12.8 0-25.6-6.4-34.133334-14.933333L64 539.733333c-12.8-14.933333-12.8-38.4 0-53.333333l238.933333-298.666667c8.533333-10.666667 21.333333-14.933333 34.133334-14.933333h507.733333c64 0 117.333333 51.2 117.333333 117.333333v450.133334c-2.133333 61.866667-53.333333 113.066667-119.466666 113.066666z m-486.4-85.333333h486.4c17.066667 0 32-14.933333 32-32v-448c0-17.066667-14.933333-32-32-32H356.266667L151.466667 512l204.8 256z" p-id="2296" fill="#E16C96"></path><path d="M475.733333 667.733333c-10.666667 0-21.333333-4.266667-29.866666-12.8-17.066667-17.066667-17.066667-42.666667 0-59.733333l226.133333-226.133333c17.066667-17.066667 42.666667-17.066667 59.733333 0 17.066667 17.066667 17.066667 42.666667 0 59.733333L505.6 654.933333c-6.4 8.533333-19.2 12.8-29.866667 12.8z" p-id="2297" fill="#E16C96"></path><path d="M701.866667 667.733333c-10.666667 0-21.333333-4.266667-29.866667-12.8L445.866667 428.8c-17.066667-17.066667-17.066667-42.666667 0-59.733333 17.066667-17.066667 42.666667-17.066667 59.733333 0l226.133333 226.133333c17.066667 17.066667 17.066667 42.666667 0 59.733333-8.533333 8.533333-19.2 12.8-29.866666 12.8z" p-id="2298" fill="#E16C96"></path></svg>