<?xml version="1.0" standalone="no"?><!DOCTYPE svg PUBLIC "-//W3C//DTD SVG 1.1//EN" "http://www.w3.org/Graphics/SVG/1.1/DTD/svg11.dtd"><svg t="1560907773702" class="icon" style="" viewBox="0 0 1024 1024" version="1.1" xmlns="http://www.w3.org/2000/svg" p-id="2926" xmlns:xlink="http://www.w3.org/1999/xlink" width="32" height="32"><defs><style type="text/css"></style></defs><path d="M917.661538 945.230769H106.338462A66.953846 66.953846 0 0 1 39.384615 878.276923V149.661538A70.892308 70.892308 0 0 1 110.276923 78.769231h308.381539a92.16 92.16 0 0 1 74.436923 39.384615l52.381538 70.892308a19.298462 19.298462 0 0 0 15.36 7.876923h354.461539A70.892308 70.892308 0 0 1 984.615385 267.815385v610.461538a66.953846 66.953846 0 0 1-66.953847 66.953846z" fill="#dbdbdb" p-id="2927"></path><path d="M118.153846 275.692308m39.384616 0l708.923076 0q39.384615 0 39.384616 39.384615l0 0q0 39.384615-39.384616 39.384615l-708.923076 0q-39.384615 0-39.384616-39.384615l0 0q0-39.384615 39.384616-39.384615Z" fill="#dbdbdb" p-id="2928"></path></svg>