<?xml version="1.0" standalone="no"?><!DOCTYPE svg PUBLIC "-//W3C//DTD SVG 1.1//EN" "http://www.w3.org/Graphics/SVG/1.1/DTD/svg11.dtd"><svg t="1583574246508" class="icon" viewBox="0 0 1024 1024" version="1.1" xmlns="http://www.w3.org/2000/svg" p-id="2736" xmlns:xlink="http://www.w3.org/1999/xlink" width="64" height="64"><defs><style type="text/css"></style></defs><path d="M864.6 160h-185.6c-0.8 0-1.4 0.4-2.2 0.4-3.4 0.2-6.8 0.8-10 2-0.4 0.2-0.8 0.6-1.2 0.8-3.2 1.4-6.2 3.2-9 5.6-16.6 16-25 48-34.6 88-1.4 5.6-2.4 10.4-3.6 14.4-1.4 5.8-4 16.4-27.2 16.4H160c-53 0-96 43-96 98.4l32 414c0 53 43 96 96 96h640c53 0 96-43 96-93.6L960.6 256c0-53-43-96-96-96z" p-id="2737" fill="#E16C96"></path><path d="M128 224h416c17.6 0 32-14.4 32-32s-14.4-32-32-32H128c-17.6 0-32 14.4-32 32s14.4 32 32 32z" p-id="2738" fill="#E16C96"></path></svg>