<?xml version="1.0" standalone="no"?><!DOCTYPE svg PUBLIC "-//W3C//DTD SVG 1.1//EN" "http://www.w3.org/Graphics/SVG/1.1/DTD/svg11.dtd"><svg t="1580484275469" class="icon" viewBox="0 0 1025 1024" version="1.1" xmlns="http://www.w3.org/2000/svg" p-id="2721" xmlns:xlink="http://www.w3.org/1999/xlink" width="128.125" height="128"><defs><style type="text/css"></style></defs><path d="M16 0v1024" p-id="2722" fill="#E16C96"></path><path d="M32 0v1024" p-id="2723" fill="#E16C96"></path><path d="M48 0v1024" p-id="2724" fill="#E16C96"></path><path d="M64 0v1024" p-id="2725" fill="#E16C96"></path><path d="M80 0v1024" p-id="2726" fill="#E16C96"></path><path d="M96 0v1024" p-id="2727" fill="#E16C96"></path><path d="M112 0v1024" p-id="2728" fill="#E16C96"></path><path d="M128 0v1024" p-id="2729" fill="#E16C96"></path><path d="M144 0v1024" p-id="2730" fill="#E16C96"></path><path d="M160 0v1024" p-id="2731" fill="#E16C96"></path><path d="M176 0v1024" p-id="2732" fill="#E16C96"></path><path d="M192 0v1024" p-id="2733" fill="#E16C96"></path><path d="M208 0v1024" p-id="2734" fill="#E16C96"></path><path d="M224 0v1024" p-id="2735" fill="#E16C96"></path><path d="M240 0v1024" p-id="2736" fill="#E16C96"></path><path d="M256 0v1024" p-id="2737" fill="#E16C96"></path><path d="M272 0v1024" p-id="2738" fill="#E16C96"></path><path d="M288 0v1024" p-id="2739" fill="#E16C96"></path><path d="M304 0v1024" p-id="2740" fill="#E16C96"></path><path d="M320 0v1024" p-id="2741" fill="#E16C96"></path><path d="M336 0v1024" p-id="2742" fill="#E16C96"></path><path d="M352 0v1024" p-id="2743" fill="#E16C96"></path><path d="M368 0v1024" p-id="2744" fill="#E16C96"></path><path d="M384 0v1024" p-id="2745" fill="#E16C96"></path><path d="M400 0v1024" p-id="2746" fill="#E16C96"></path><path d="M416 0v1024" p-id="2747" fill="#E16C96"></path><path d="M432 0v1024" p-id="2748" fill="#E16C96"></path><path d="M448 0v1024" p-id="2749" fill="#E16C96"></path><path d="M464 0v1024" p-id="2750" fill="#E16C96"></path><path d="M480 0v1024" p-id="2751" fill="#E16C96"></path><path d="M496 0v1024" p-id="2752" fill="#E16C96"></path><path d="M512 0v1024" p-id="2753" fill="#E16C96"></path><path d="M528 0v1024" p-id="2754" fill="#E16C96"></path><path d="M544 0v1024" p-id="2755" fill="#E16C96"></path><path d="M560 0v1024" p-id="2756" fill="#E16C96"></path><path d="M576 0v1024" p-id="2757" fill="#E16C96"></path><path d="M592 0v1024" p-id="2758" fill="#E16C96"></path><path d="M608 0v1024" p-id="2759" fill="#E16C96"></path><path d="M624 0v1024" p-id="2760" fill="#E16C96"></path><path d="M640 0v1024" p-id="2761" fill="#E16C96"></path><path d="M656 0v1024" p-id="2762" fill="#E16C96"></path><path d="M672 0v1024" p-id="2763" fill="#E16C96"></path><path d="M688 0v1024" p-id="2764" fill="#E16C96"></path><path d="M704 0v1024" p-id="2765" fill="#E16C96"></path><path d="M720 0v1024" p-id="2766" fill="#E16C96"></path><path d="M736 0v1024" p-id="2767" fill="#E16C96"></path><path d="M752 0v1024" p-id="2768" fill="#E16C96"></path><path d="M768 0v1024" p-id="2769" fill="#E16C96"></path><path d="M784 0v1024" p-id="2770" fill="#E16C96"></path><path d="M800 0v1024" p-id="2771" fill="#E16C96"></path><path d="M816 0v1024" p-id="2772" fill="#E16C96"></path><path d="M832 0v1024" p-id="2773" fill="#E16C96"></path><path d="M848 0v1024" p-id="2774" fill="#E16C96"></path><path d="M864 0v1024" p-id="2775" fill="#E16C96"></path><path d="M880 0v1024" p-id="2776" fill="#E16C96"></path><path d="M896 0v1024" p-id="2777" fill="#E16C96"></path><path d="M912 0v1024" p-id="2778" fill="#E16C96"></path><path d="M928 0v1024" p-id="2779" fill="#E16C96"></path><path d="M944 0v1024" p-id="2780" fill="#E16C96"></path><path d="M960 0v1024" p-id="2781" fill="#E16C96"></path><path d="M976 0v1024" p-id="2782" fill="#E16C96"></path><path d="M992 0v1024" p-id="2783" fill="#E16C96"></path><path d="M1008 0v1024" p-id="2784" fill="#E16C96"></path><path d="M1024 0v1024" p-id="2785" fill="#E16C96"></path><path d="M0 16h1025" p-id="2786" fill="#E16C96"></path><path d="M0 32h1025" p-id="2787" fill="#E16C96"></path><path d="M0 48h1025" p-id="2788" fill="#E16C96"></path><path d="M0 64h1025" p-id="2789" fill="#E16C96"></path><path d="M0 80h1025" p-id="2790" fill="#E16C96"></path><path d="M0 96h1025" p-id="2791" fill="#E16C96"></path><path d="M0 112h1025" p-id="2792" fill="#E16C96"></path><path d="M0 128h1025" p-id="2793" fill="#E16C96"></path><path d="M0 144h1025" p-id="2794" fill="#E16C96"></path><path d="M0 160h1025" p-id="2795" fill="#E16C96"></path><path d="M0 176h1025" p-id="2796" fill="#E16C96"></path><path d="M0 192h1025" p-id="2797" fill="#E16C96"></path><path d="M0 208h1025" p-id="2798" fill="#E16C96"></path><path d="M0 224h1025" p-id="2799" fill="#E16C96"></path><path d="M0 240h1025" p-id="2800" fill="#E16C96"></path><path d="M0 256h1025" p-id="2801" fill="#E16C96"></path><path d="M0 272h1025" p-id="2802" fill="#E16C96"></path><path d="M0 288h1025" p-id="2803" fill="#E16C96"></path><path d="M0 304h1025" p-id="2804" fill="#E16C96"></path><path d="M0 320h1025" p-id="2805" fill="#E16C96"></path><path d="M0 336h1025" p-id="2806" fill="#E16C96"></path><path d="M0 352h1025" p-id="2807" fill="#E16C96"></path><path d="M0 368h1025" p-id="2808" fill="#E16C96"></path><path d="M0 384h1025" p-id="2809" fill="#E16C96"></path><path d="M0 400h1025" p-id="2810" fill="#E16C96"></path><path d="M0 416h1025" p-id="2811" fill="#E16C96"></path><path d="M0 432h1025" p-id="2812" fill="#E16C96"></path><path d="M0 448h1025" p-id="2813" fill="#E16C96"></path><path d="M0 464h1025" p-id="2814" fill="#E16C96"></path><path d="M0 480h1025" p-id="2815" fill="#E16C96"></path><path d="M0 496h1025" p-id="2816" fill="#E16C96"></path><path d="M0 512h1025" p-id="2817" fill="#E16C96"></path><path d="M0 528h1025" p-id="2818" fill="#E16C96"></path><path d="M0 544h1025" p-id="2819" fill="#E16C96"></path><path d="M0 560h1025" p-id="2820" fill="#E16C96"></path><path d="M0 576h1025" p-id="2821" fill="#E16C96"></path><path d="M0 592h1025" p-id="2822" fill="#E16C96"></path><path d="M0 608h1025" p-id="2823" fill="#E16C96"></path><path d="M0 624h1025" p-id="2824" fill="#E16C96"></path><path d="M0 640h1025" p-id="2825" fill="#E16C96"></path><path d="M0 656h1025" p-id="2826" fill="#E16C96"></path><path d="M0 672h1025" p-id="2827" fill="#E16C96"></path><path d="M0 688h1025" p-id="2828" fill="#E16C96"></path><path d="M0 704h1025" p-id="2829" fill="#E16C96"></path><path d="M0 720h1025" p-id="2830" fill="#E16C96"></path><path d="M0 736h1025" p-id="2831" fill="#E16C96"></path><path d="M0 752h1025" p-id="2832" fill="#E16C96"></path><path d="M0 768h1025" p-id="2833" fill="#E16C96"></path><path d="M0 784h1025" p-id="2834" fill="#E16C96"></path><path d="M0 800h1025" p-id="2835" fill="#E16C96"></path><path d="M0 816h1025" p-id="2836" fill="#E16C96"></path><path d="M0 832h1025" p-id="2837" fill="#E16C96"></path><path d="M0 848h1025" p-id="2838" fill="#E16C96"></path><path d="M0 864h1025" p-id="2839" fill="#E16C96"></path><path d="M0 880h1025" p-id="2840" fill="#E16C96"></path><path d="M0 896h1025" p-id="2841" fill="#E16C96"></path><path d="M0 912h1025" p-id="2842" fill="#E16C96"></path><path d="M0 928h1025" p-id="2843" fill="#E16C96"></path><path d="M0 944h1025" p-id="2844" fill="#E16C96"></path><path d="M0 960h1025" p-id="2845" fill="#E16C96"></path><path d="M0 976h1025" p-id="2846" fill="#E16C96"></path><path d="M0 992h1025" p-id="2847" fill="#E16C96"></path><path d="M0 1008h1025" p-id="2848" fill="#E16C96"></path><path d="M512.5 1024C229.731 1024 0.5 794.769 0.5 512S229.733 0 512.5 0c282.769 0 512 229.231 512 512s-229.231 512-512 512z m-31.693-526.589L318.424 659.796c-10.289 10.287-10.289 26.977 0 37.263s26.977 10.287 37.263 0l162.385-162.385 163.89 163.89c10.287 10.287 26.977 10.287 37.263 0s10.289-26.977 0-37.263l-163.89-163.89 155.537-155.535c10.287-10.287 10.287-26.977 0-37.265s-26.977-10.287-37.263 0L518.072 460.148l-159.32-159.32c-10.287-10.287-26.977-10.287-37.263 0s-10.289 26.977 0 37.263l159.32 159.32z" p-id="2849" fill="#E16C96"></path></svg>