<?xml version="1.0" standalone="no"?><!DOCTYPE svg PUBLIC "-//W3C//DTD SVG 1.1//EN" "http://www.w3.org/Graphics/SVG/1.1/DTD/svg11.dtd"><svg t="1580544757415" class="icon" viewBox="0 0 1024 1024" version="1.1" xmlns="http://www.w3.org/2000/svg" p-id="4161" xmlns:xlink="http://www.w3.org/1999/xlink" width="128" height="128"><defs><style type="text/css"></style></defs><path d="M155.169972 800.001728l42.237888-41.981901A24.062797 24.062797 0 0 0 179.232768 716.805888H23.848538a23.80681 23.80681 0 0 0-23.80681 23.806809v156.920154a25.59872 25.59872 0 0 0 40.957952 17.151143l41.981901-42.237888 136.441178 136.441178A51.19744 51.19744 0 0 0 256.028929 1023.990528a52.989351 52.989351 0 0 0 36.606169-14.847257 51.19744 51.19744 0 0 0 0-72.188391z m827.862606-691.165442l-41.9819 43.00585L804.6095 14.888984A51.19744 51.19744 0 0 0 768.00333 0.041726a53.501325 53.501325 0 0 0-36.60617 14.847258 51.19744 51.19744 0 0 0 0 72.18839l136.441178 136.441178-41.981901 41.981901a23.80681 23.80681 0 0 0 17.151143 40.957952h156.920154A23.80681 23.80681 0 0 0 1023.990531 281.627647V128.035326a24.062797 24.062797 0 0 0-40.957953-18.175091z m-290.033498 253.171342A330.99145 330.99145 0 1 0 1023.990531 692.999078a330.99145 330.99145 0 0 0-330.991451-330.99145z m-435.178241 292.081396a435.178241 435.178241 0 0 1 396.268187-394.988251 330.99145 330.99145 0 1 0-394.988251 394.988251z" fill="#E16C96" p-id="4162"></path></svg>