<?xml version="1.0" encoding="utf-8"?>
<!-- Generator: Adobe Illustrator 24.0.0, SVG Export Plug-In . SVG Version: 6.00 Build 0)  -->
<svg version="1.1" id="图层_1" xmlns="http://www.w3.org/2000/svg" xmlns:xlink="http://www.w3.org/1999/xlink" x="0px" y="0px"
	 viewBox="0 0 64 64" style="enable-background:new 0 0 64 64;" xml:space="preserve">
<style type="text/css">
	.st0{fill:#E16C96;}
	.st1{opacity:0.5;fill:#FFFFFF;enable-background:new    ;}
</style>
<path class="st0" d="M39.7,0H10.1C7.5,0,5.3,2.3,5.3,5.1v53.8c0,2.8,2.1,5.1,4.7,5.1h42.4c2.6,0,4.7-2.3,4.7-5.1V20.3L39.7,0z
	 M26.1,53.9H14.7v-2.1h11.4V53.9z M34.7,49.1h-20V47h20V49.1z M34.7,44.3h-20v-2.1h20V44.3z M34.7,39.5h-20v-2.1h20V39.5z"/>
<path class="st0" d="M57.2,20.4v1H45.3c0,0-5.9-1.3-5.7-6.7c0,0,0.2,5.7,5.6,5.7C45.1,20.4,57.2,20.4,57.2,20.4z"/>
<path class="st1" d="M39.7,0v14.6c0,1.6,1,5.8,5.6,5.8h11.9L39.7,0z"/>
</svg>
