<?xml version="1.0" standalone="no"?><!DOCTYPE svg PUBLIC "-//W3C//DTD SVG 1.1//EN" "http://www.w3.org/Graphics/SVG/1.1/DTD/svg11.dtd"><svg t="1560907799890" class="icon" style="" viewBox="0 0 1024 1024" version="1.1" xmlns="http://www.w3.org/2000/svg" p-id="4010" xmlns:xlink="http://www.w3.org/1999/xlink" width="32" height="32"><defs><style type="text/css"></style></defs><path d="M768 402.286H603.429c-29.258 0-54.858-25.6-54.858-54.857V182.857c0-21.943 14.629-36.571 36.572-36.571s36.571 14.628 36.571 36.571v146.286H768c21.943 0 36.571 14.628 36.571 36.571S789.943 402.286 768 402.286m102.4-80.457c0-14.629-7.314-29.258-18.286-36.572-80.457-76.8-149.943-146.286-245.028-204.8-7.315-3.657-18.286-7.314-29.257-7.314H208.457C179.2 73.143 153.6 95.086 153.6 128c-10.971 256-10.971 515.657 0 771.657 0 29.257 25.6 54.857 54.857 54.857h607.086c29.257 0 54.857-21.943 54.857-51.2 10.971-197.485 10.971-387.657 0-581.485" p-id="4011" fill="#dbdbdb"></path></svg>