<?xml version="1.0" encoding="utf-8"?>
<!-- Generator: Adobe Illustrator 24.0.0, SVG Export Plug-In . SVG Version: 6.00 Build 0)  -->
<svg version="1.1" id="图层_1" xmlns="http://www.w3.org/2000/svg" xmlns:xlink="http://www.w3.org/1999/xlink" x="0px" y="0px"
	 viewBox="0 0 64 64" style="enable-background:new 0 0 64 64;" xml:space="preserve">
<style type="text/css">
	.st0{fill:#E16C96;}
</style>
<path class="st0" d="M43.1,1.9C40.9,0.7,38.4,0,35.8,0H10.1C7.5,0,5.3,2.3,5.3,5.1v53.8c0,2.8,2.1,5.1,4.7,5.1h42.4
	c2.6,0,4.7-2.3,4.7-5.1V24.2c0-2.6-0.5-5.2-1.4-7.6l0,0C53.3,10.4,48.8,5.2,43.1,1.9L43.1,1.9z M26.1,53.9H14.7v-2.1h11.4
	C26.1,51.8,26.1,53.9,26.1,53.9z M34.7,49.1h-20V47h20V49.1z M34.7,44.3h-20v-2.1h20V44.3z M34.7,39.5h-20v-2.1h20V39.5z"/>
</svg>
