<?xml version="1.0" standalone="no"?><!DOCTYPE svg PUBLIC "-//W3C//DTD SVG 1.1//EN" "http://www.w3.org/Graphics/SVG/1.1/DTD/svg11.dtd"><svg t="1580466360381" class="icon" viewBox="0 0 1024 1024" version="1.1" xmlns="http://www.w3.org/2000/svg" p-id="829" width="1024" height="1024" xmlns:xlink="http://www.w3.org/1999/xlink"><defs><style type="text/css"></style></defs><path d="M886.556444 400.896a40.533333 40.533333 0 0 0-27.335111-27.192889L177.720889 172.316444c-21.333333-6.229333-44.117333 5.575111-50.659556 26.766223L30.151111 516.266667a39.936 39.936 0 0 0 27.221333 49.834666l536.263112 158.549334a40.96 40.96 0 0 0 42.353777-12.145778l242.232889-274.346667c8.988444-10.154667 12.117333-24.263111 8.334222-37.262222z m132.465778 123.790222a41.955556 41.955556 0 0 0-24.888889-19.996444l-56.689777-16.696889a43.235556 43.235556 0 0 0-43.889778 12.544L753.777778 658.773333a40.448 40.448 0 0 0-8.675556 38.570667c4.010667 13.539556 14.563556 24.035556 28.330667 28.074667l140.344889 41.528889a42.126222 42.126222 0 0 0 52.337778-27.648l56.007111-183.125334a40.561778 40.561778 0 0 0-3.100445-31.488z m-592.156444 180.508445l-160.568889-64.796445a40.874667 40.874667 0 0 0-53.020445 21.76c-8.533333 20.423111 1.450667 43.804444 22.129778 52.110222l44.430222 17.92-28.330666 67.868445-167.224889-10.951111c-21.447111-1.393778-41.784889 15.189333-43.235556 37.262222a40.220444 40.220444 0 0 0 37.888 42.524444l196.352 12.771556c0.881778 0 1.792 0.113778 2.673778 0.113778a40.675556 40.675556 0 0 0 37.546667-24.803556l39.452444-94.407111 40.903111 16.497778c5.006222 2.076444 10.325333 2.958222 15.445334 2.958222a40.675556 40.675556 0 0 0 37.660444-24.803555 39.594667 39.594667 0 0 0-22.101333-52.024889z" p-id="830" fill="#E16C96"></path></svg>