<?xml version="1.0" standalone="no"?><!DOCTYPE svg PUBLIC "-//W3C//DTD SVG 1.1//EN" "http://www.w3.org/Graphics/SVG/1.1/DTD/svg11.dtd"><svg t="1580534807156" class="icon" viewBox="0 0 1092 1024" version="1.1" xmlns="http://www.w3.org/2000/svg" p-id="1931" xmlns:xlink="http://www.w3.org/1999/xlink" width="136.5" height="128"><defs><style type="text/css"></style></defs><path d="M668.4672 378.333867h-146.773333v275.182933h177.3568c18.295467 0 30.583467-12.219733 30.583466-30.583467V439.5008c0-30.583467-30.583467-61.166933-61.166933-61.166933z" p-id="1932" fill="#E16C96"></path><path d="M1078.203733 463.940267L864.256 90.862933c-18.432-30.583467-61.166933-55.022933-97.8944-55.022933h-434.176c-36.727467-6.144-85.674667 18.363733-97.8944 48.9472L14.062933 463.940267c-18.363733 30.583467-18.363733 79.530667 0 110.114133l214.016 373.077333c18.432 30.583467 61.166933 55.022933 97.8944 55.022934h434.176c36.727467 0 79.530667-24.439467 97.8944-55.022934l214.084267-373.077333c24.439467-30.583467 24.439467-79.530667 6.144-110.114133zM399.36 720.896h-61.166933V317.166933h61.166933v403.6608z m391.441067-91.7504c0 48.9472-42.871467 91.7504-91.7504 91.7504H460.526933V317.166933h207.940267c67.242667 0 122.333867 55.022933 122.333867 122.333867v189.576533z" p-id="1933" fill="#E16C96"></path></svg>