<?xml version="1.0" standalone="no"?><!DOCTYPE svg PUBLIC "-//W3C//DTD SVG 1.1//EN" "http://www.w3.org/Graphics/SVG/1.1/DTD/svg11.dtd"><svg t="1582632454992" class="icon" viewBox="0 0 1024 1024" version="1.1" xmlns="http://www.w3.org/2000/svg" p-id="2387" xmlns:xlink="http://www.w3.org/1999/xlink" width="64" height="64"><defs><style type="text/css"></style></defs><path d="M512 66.56C266.0352 66.56 66.56 266.0352 66.56 512s199.4752 445.44 445.44 445.44 445.44-199.4752 445.44-445.44S757.9648 66.56 512 66.56z m165.1712 532.1728c23.1424 23.1424 23.1424 60.928 0 83.968-23.1424 23.1424-60.928 23.1424-83.968 0l-83.968-83.968-83.968 83.968c-23.1424 23.1424-60.928 23.1424-83.968 0-23.1424-23.1424-23.1424-60.928 0-83.968l83.968-83.968-83.968-83.968c-23.1424-23.1424-23.1424-60.928 0-83.968 23.1424-23.1424 60.928-23.1424 83.968 0l83.968 83.968 83.968-83.968c23.1424-23.1424 60.928-23.1424 83.968 0 23.1424 23.1424 23.1424 60.928 0 83.968l-83.968 83.968 83.968 83.968z" p-id="2388" fill="#E16C96"></path></svg>