<?xml version="1.0" standalone="no"?><!DOCTYPE svg PUBLIC "-//W3C//DTD SVG 1.1//EN" "http://www.w3.org/Graphics/SVG/1.1/DTD/svg11.dtd"><svg t="1583510769373" class="icon" viewBox="0 0 1024 1024" version="1.1" xmlns="http://www.w3.org/2000/svg" p-id="2713" xmlns:xlink="http://www.w3.org/1999/xlink" width="64" height="64"><defs><style type="text/css"></style></defs><path d="M512 621.714c-121.015 0-219.429-98.414-219.429-219.429S390.985 182.857 512 182.857s219.429 98.414 219.429 219.429S633.015 621.714 512 621.714zM512 256c-80.677 0-146.286 65.609-146.286 146.286S431.323 548.571 512 548.571s146.286-65.609 146.286-146.286S592.677 256 512 256z" p-id="2714" fill="#E16C96"></path><path d="M512 1024c-9.07 0-18.176-3.365-25.234-10.094-14.592-13.97-15.141-37.12-1.207-51.712 98.889-103.68 355.584-406.382 355.584-559.909 0-181.467-147.639-329.143-329.143-329.143-181.467 0-329.143 147.675-329.143 329.143 0 86.418 82.907 235.52 233.435 419.913 12.8 15.689 10.459 38.729-5.193 51.456-15.653 12.763-38.729 10.459-51.456-5.193C193.792 665.344 109.714 508.489 109.714 402.286 109.714 180.48 290.194 0 512 0s402.286 180.48 402.286 402.286c0 214.126-360.485 594.322-375.808 610.377C531.273 1020.197 521.655 1024 512 1024z" p-id="2715" fill="#E16C96"></path></svg>