<?xml version="1.0" standalone="no"?><!DOCTYPE svg PUBLIC "-//W3C//DTD SVG 1.1//EN" "http://www.w3.org/Graphics/SVG/1.1/DTD/svg11.dtd"><svg t="1580627678113" class="icon" viewBox="0 0 1024 1024" version="1.1" xmlns="http://www.w3.org/2000/svg" p-id="2459" xmlns:xlink="http://www.w3.org/1999/xlink" width="128" height="128"><defs><style type="text/css"></style></defs><path d="M512 961.28v-129.92a349.568 349.568 0 0 0 173.696-65.408 356.544 356.544 0 0 0 79.552-79.616 352.128 352.128 0 0 0-285.184-558.208 353.152 353.152 0 0 0-350.592 320.32H0.448a466.88 466.88 0 0 1 98.816-267.136 468.864 468.864 0 0 1 81.92-81.984A465.92 465.92 0 0 1 468.864 0c258.944 0 495.36 210.112 495.36 469.312 0 104.448-45.44 222.464-109.696 304.64L1024 943.04 941.12 1024l-171.008-164.224C701.056 913.6 606.72 952.064 512 961.28zM0.448 448.448A467.2 467.2 0 0 0 0 469.12zM64 832h256a64 64 0 1 1 0 128H64a64 64 0 1 1 0-128z m0-256h384a64 64 0 1 1 0 128H64a64 64 0 1 1 0-128z" p-id="2460" fill="#E16C96"></path></svg>