<?xml version="1.0" standalone="no"?><!DOCTYPE svg PUBLIC "-//W3C//DTD SVG 1.1//EN" "http://www.w3.org/Graphics/SVG/1.1/DTD/svg11.dtd"><svg t="1589548907556" class="icon" viewBox="0 0 1024 1024" version="1.1" xmlns="http://www.w3.org/2000/svg" p-id="1229" xmlns:xlink="http://www.w3.org/1999/xlink" width="200" height="200"><defs><style type="text/css"></style></defs><path d="M874.338462 472.615385h-155.569231l-64.984616 78.76923H866.461538v118.153847H157.538462v-118.153847h210.707692l-64.984616-78.76923H149.661538c-39.384615 0-70.892308 31.507692-70.892307 70.892307V925.538462c0 33.476923 25.6 59.076923 59.076923 59.076923h748.307692c33.476923 0 59.076923-25.6 59.076923-59.076923V543.507692c0-39.384615-31.507692-70.892308-70.892307-70.892307zM452.923077 68.923077V315.076923h-135.876923c-19.692308 0-29.538462 17.723077-17.723077 27.569231l196.923077 242.215384c7.876923 5.907692 19.692308 5.907692 27.569231 0l196.923077-242.215384c11.815385-11.815385 1.969231-27.569231-17.723077-27.569231H571.076923V68.923077c0-15.753846-13.784615-29.538462-29.538461-29.538462h-59.076924c-15.753846 0-29.538462 13.784615-29.538461 29.538462z" p-id="1230" fill="#E16C96"></path></svg>