<?xml version="1.0" standalone="no"?><!DOCTYPE svg PUBLIC "-//W3C//DTD SVG 1.1//EN" "http://www.w3.org/Graphics/SVG/1.1/DTD/svg11.dtd"><svg t="1580548820595" class="icon" viewBox="0 0 1194 1024" version="1.1" xmlns="http://www.w3.org/2000/svg" p-id="2325" xmlns:xlink="http://www.w3.org/1999/xlink" width="149.25" height="128"><defs><style type="text/css"></style></defs><path d="M1109.333333 0a85.333333 85.333333 0 0 1 85.333334 85.333333v597.333334a85.333333 85.333333 0 0 1-85.333334 85.333333h-85.333333v170.666667a85.333333 85.333333 0 0 1-85.333333 85.333333H85.333333a85.333333 85.333333 0 0 1-85.333333-85.333333V256a85.333333 85.333333 0 0 1 85.333333-85.333333h85.333334V85.333333a85.333333 85.333333 0 0 1 85.333333-85.333333h853.333333z m0 85.333333H256v170.666667H85.333333v682.666667h853.333334V256H810.666667a42.666667 42.666667 0 0 1 0-85.333333H938.666667a85.333333 85.333333 0 0 1 84.736 75.349333L1024 256v426.666667h85.333333V85.333333zM512 170.666667a213.333333 213.333333 0 0 1 138.666667 375.466666 298.666667 298.666667 0 0 1 159.573333 248.149334L810.666667 810.666667a42.666667 42.666667 0 0 1-84.650667 7.68L725.333333 810.666667a213.333333 213.333333 0 0 0-426.24-13.994667L298.666667 810.666667a42.666667 42.666667 0 0 1-84.650667 7.68L213.333333 810.666667a298.666667 298.666667 0 0 1 160-264.533334A213.333333 213.333333 0 0 1 512 170.666667z m0 85.333333a128 128 0 1 0 0 256 128 128 0 0 0 0-256z" fill="#E16C96" p-id="2326"></path></svg>