<?xml version="1.0" standalone="no"?><!DOCTYPE svg PUBLIC "-//W3C//DTD SVG 1.1//EN" "http://www.w3.org/Graphics/SVG/1.1/DTD/svg11.dtd"><svg t="1580548938850" class="icon" viewBox="0 0 1027 1024" version="1.1" xmlns="http://www.w3.org/2000/svg" p-id="5453" xmlns:xlink="http://www.w3.org/1999/xlink" width="128.375" height="128"><defs><style type="text/css"></style></defs><path d="M515.3792 37.7344A474.2656 474.2656 0 1 1 40.96 512a474.8288 474.8288 0 0 1 474.4192-474.2656m0-37.7344a512 512 0 1 0 512 512 512 512 0 0 0-512-512z" fill="#E16C96" p-id="5454"></path><path d="M335.2576 679.936a20.48 20.48 0 0 1-20.7872-20.48V472.1664h332.4416v52.48a133.12 133.12 0 0 1 31.1808 6.5024V440.9856h-394.752v218.5216a51.7632 51.7632 0 0 0 51.968 51.5584h177.5616a133.12 133.12 0 0 1-9.216-31.1808z m301.2608-238.9504h-31.1808V409.6a124.672 124.672 0 0 0-249.344 0v31.1808h-31.1296V409.6a155.8528 155.8528 0 1 1 311.6544 0v31.1808z m0 0" fill="#E16C96" p-id="5455"></path><path d="M475.4944 524.0832h10.24a15.36 15.36 0 0 1 15.36 15.36v72.704a15.36 15.36 0 0 1-15.36 15.36h-10.24a15.36 15.36 0 0 1-15.36-15.36v-72.704a15.36 15.36 0 0 1 15.36-15.36z m159.8976 21.5552a112.128 112.128 0 1 0 112.128 112.128 112.128 112.128 0 0 0-112.128-112.128z m1.1264 193.6384a84.992 84.992 0 1 1 84.992-84.992 84.992 84.992 0 0 1-84.992 84.992z m0 0" fill="#E16C96" p-id="5456"></path><path d="M632.9856 692.4288h10.0352v9.1136h-10.0352z" fill="#E16C96" p-id="5457"></path><path d="M626.8416 686.2848h22.3232v21.3504h-22.3232z" fill="#E16C96" p-id="5458"></path><path d="M641.0752 600.1152q-28.2112-0.4608-35.84 27.7504h8.1408q6.7072-22.9376 27.7504-22.4768 20.48 1.4336 22.4768 21.0432 1.4336 11.008-15.7696 22.016-14.848 9.5744-14.336 22.9376v4.7616h8.1408v-4.3008a19.8144 19.8144 0 0 1 10.5472-18.6368q21.5552-11.4688 20.0704-27.7504-2.4064-23.9104-31.0784-25.6z" fill="#E16C96" p-id="5459"></path><path d="M647.7312 682.2912h-20.48v-10.9056c-0.4096-10.9568 5.12-20.48 17.152-28.1088 6.4-4.096 13.824-10.24 13.056-16.0256-1.024-10.24-6.0416-14.9504-16.8448-15.7184H640c-6.7584 0-16.2816 1.8944-20.992 18.0736l-1.28 4.4032h-20.736l2.0992-7.7312c5.7344-21.0944 19.8656-32.256 40.96-32.256h1.024c28.2624 1.4336 35.84 17.5616 37.12 30.72s-6.656 24.8832-23.296 33.792a13.6192 13.6192 0 0 0-7.2704 13.0048z m0 0" fill="#E16C96" p-id="5460"></path></svg>