<?xml version="1.0" standalone="no"?><!DOCTYPE svg PUBLIC "-//W3C//DTD SVG 1.1//EN" "http://www.w3.org/Graphics/SVG/1.1/DTD/svg11.dtd"><svg t="1580542322173" class="icon" viewBox="0 0 1609 1024" version="1.1" xmlns="http://www.w3.org/2000/svg" p-id="2285" xmlns:xlink="http://www.w3.org/1999/xlink" width="201.125" height="128"><defs><style type="text/css"></style></defs><path d="M256.00449 0.017959H73.146705A73.146705 73.146705 0 0 0 0 73.164664v877.688631a73.146705 73.146705 0 0 0 146.275452 0V658.284432h109.711079a329.142216 329.142216 0 1 0 0-658.284432z m0 511.99102h-109.729038V146.293411h109.711079a182.857784 182.857784 0 1 1 0 365.715568zM731.413178 0.017959a73.146705 73.146705 0 0 0-73.146705 73.146705v877.688631a73.146705 73.146705 0 0 0 146.275452 0V73.164664A73.146705 73.146705 0 0 0 731.413178 0.017959z m365.715569 0h-146.293411a73.146705 73.146705 0 0 0-73.146706 73.146705v877.688631a73.146705 73.146705 0 0 0 73.146706 73.146705h146.275452c282.781248 0 512.008979-229.227731 512.008979-511.991021S1379.892036 0.017959 1097.128747 0.017959z m0 877.706589h-73.146706V146.293411h73.146706c201.98404 0 365.715568 163.731528 365.715568 365.715568s-163.749487 365.715568-365.715568 365.715569z" p-id="2286" fill="#E16C96"></path></svg>