<?xml version="1.0" standalone="no"?><!DOCTYPE svg PUBLIC "-//W3C//DTD SVG 1.1//EN" "http://www.w3.org/Graphics/SVG/1.1/DTD/svg11.dtd"><svg t="1580484347792" class="icon" viewBox="0 0 1024 1024" version="1.1" xmlns="http://www.w3.org/2000/svg" p-id="3524" xmlns:xlink="http://www.w3.org/1999/xlink" width="128" height="128"><defs><style type="text/css"></style></defs><path d="M573.3 598.9H450.6c-61.5 0-111.5 50-111.5 111.5s50 111.5 111.5 111.5h122.6c61.5 0 111.5-50.1 111.5-111.5s-49.9-111.5-111.4-111.5z m0 171.8H450.6c-33.3 0-60.3-27.1-60.3-60.4s27-60.3 60.3-60.3h122.6c33.3 0 60.4 27.1 60.4 60.3s-27 60.4-60.3 60.4z" p-id="3525" fill="#E16C96"></path><path d="M453.6 675.6c-19.2 0-34.8 15.6-34.8 34.8 0 19.2 15.6 34.8 34.8 34.8 19.2 0 34.8-15.6 34.8-34.8-0.1-19.2-15.6-34.8-34.8-34.8zM570.4 675.6c-19.2 0-34.8 15.6-34.8 34.8 0 19.2 15.6 34.8 34.8 34.8 19.2 0 34.8-15.6 34.8-34.8-0.1-19.2-15.6-34.8-34.8-34.8zM401.5 514.8c0-31.2-25.3-56.5-56.5-56.5s-56.5 25.3-56.5 56.5 25.3 56.5 56.5 56.5 56.5-25.3 56.5-56.5zM678.9 458.3c-31.2 0-56.5 25.3-56.5 56.5s25.3 56.5 56.5 56.5 56.5-25.3 56.5-56.5-25.3-56.5-56.5-56.5z" p-id="3526" fill="#E16C96"></path><path d="M1013.6 158.2l-3.2-17.3-17.3-3.2c-20.3-3.8-202.1-35.1-271 33.5-20.3 20.3-34.8 44.5-43.5 70.9-52-23.8-108.8-37-166.7-37-58.8 0-114.6 12.9-166.7 36.9-8.7-26.5-23.2-50.7-43.5-70.9-68.9-68.5-250.4-37.2-271-33.4L13.4 141l-3.2 17.3c-3.7 20.5-34.7 202 33.8 270.6 24.5 24.5 54.7 41.1 87.5 48.6-14.3 41.8-21.9 85.3-21.9 130 0 192 135.3 289.3 402.3 289.3 266.9 0 402.3-97.3 402.3-289.3 0-44.7-7.6-88.2-21.9-130 32.8-7.5 63.1-24.1 87.5-48.5 69-68.7 37.6-250.3 33.8-270.8zM57.7 185.1c68.9-10.1 173.4-12.1 207.9 22.2 16.5 16.5 28 36.5 33.7 58.6-9.1 5.6-17.4 12.5-26 18.9-5.5 4.1-11.3 7.7-16.6 12-9.2 7.6-17.7 16.1-26.2 24.5l-52.6-52.6-36.2 36.2 54.5 54.5c-7.2 9.1-14.4 18.2-20.7 27.9-3.5 5.4-6.4 11.2-9.7 16.7-4.9 8.4-10.3 16.5-14.5 25.1-26.6-4.3-51.4-16.9-71-36.6C45.9 358.3 47.7 254 57.7 185.1zM512 845.5c-239.5 0-351.1-75.7-351.1-238.1 0-48.9 9.9-96.2 29.5-140.8v-0.1c14.4-33.4 34.3-64.4 58.9-92.2 6.2-6.9 13.3-12.6 19.9-19 15-14.4 31.2-27.4 48.4-38.8 7.6-5 14.7-10.8 22.6-15.2l0.4-0.2c52.6-29.7 110.3-44.8 171.4-44.8 61.2 0 118.9 15.1 171.8 45 34.5 19 65 43.6 90.9 73.4 24.3 27.1 44.1 58 58.9 91.9 19.6 44.5 29.5 91.9 29.5 140.8C863 769.8 751.5 845.5 512 845.5z m431.7-452.8c-19.6 19.6-44.4 32.3-71.1 36.6-4.3-8.8-9.7-16.9-14.7-25.3-3.3-5.6-6.2-11.4-9.7-16.8-6.2-9.5-13.4-18.4-20.4-27.3l54.9-54.9-36.2-36.2-52.9 52.9c-8.4-8.4-16.7-17-25.9-24.5-5.3-4.4-11.2-8-16.7-12.1-8.7-6.4-17-13.4-26.3-19.1 5.7-22 17.2-42 33.6-58.5 34.6-34.4 139.1-32.4 208-22.3 10 68.8 11.9 173.1-22.6 207.5z" p-id="3527" fill="#E16C96"></path></svg>