<?xml version="1.0" standalone="no"?><!DOCTYPE svg PUBLIC "-//W3C//DTD SVG 1.1//EN" "http://www.w3.org/Graphics/SVG/1.1/DTD/svg11.dtd"><svg t="1580548898192" class="icon" viewBox="0 0 1024 1024" version="1.1" xmlns="http://www.w3.org/2000/svg" p-id="4031" xmlns:xlink="http://www.w3.org/1999/xlink" width="128" height="128"><defs><style type="text/css"></style></defs><path d="M702.7 321.4c0-21-17.2-38.1-38.1-38.1h-305c-21 0-38.1 17.2-38.1 38.1v152.5h-38.1v152.5l95.3 57.2v57.2h266.9v-57.2l95.3-57.2V473.9h-38.1V321.4zM454.9 683.6l-57.2-57.2h38.1V531H474v95.3h38.1l-57.2 57.3z m133.5-114.4v95.3h-38.1v-95.3h-38.1l57.2-57.2 57.2 57.2h-38.2z m57.2-114.4h-57.2v-76.2h-57.2v76.2H493v-76.2h-57.2v76.2h-57.2V340.4h266.9v114.4z" fill="#E16C96" p-id="4032"></path><path d="M512.1 63.8C264.6 63.8 63.9 264.4 63.9 512s200.7 448.2 448.2 448.2S960.4 759.6 960.4 512 759.7 63.8 512.1 63.8z m0 826.4c-208.9 0-378.2-169.3-378.2-378.2s169.3-378.2 378.2-378.2S890.3 303.1 890.3 512 721 890.2 512.1 890.2z" fill="#E16C96" p-id="4033"></path></svg>