<?xml version="1.0" standalone="no"?><!DOCTYPE svg PUBLIC "-//W3C//DTD SVG 1.1//EN" "http://www.w3.org/Graphics/SVG/1.1/DTD/svg11.dtd"><svg t="1580479408156" class="icon" viewBox="0 0 1024 1024" version="1.1" xmlns="http://www.w3.org/2000/svg" p-id="2408" xmlns:xlink="http://www.w3.org/1999/xlink" width="128" height="128"><defs><style type="text/css"></style></defs><path d="M852.992 538.016q-16 0-27.008 11.488t-11.008 26.496q0 126.016-88.512 214.496t-214.496 88.512-214.496-88.512-88.512-214.016 88.512-214.496 214.496-88.992h0.992l-66.016 86.016q-10.016 12.992-8 28.512t15.008 24.512q10.016 8 23.008 8 18.016 0 30.016-15.008l118.016-155.008q10.016-12 8-27.488t-15.008-24.512l-156.992-120.992q-12-10.016-27.488-7.488t-24.992 14.496-7.488 27.488 14.016 25.504l80 60.992q-68 3.008-130.016 28.992Q297.024 256 244.512 308.512t-81.504 120.512q-28.992 70.016-28.992 147.008t28.992 148Q192 791.04 244.512 843.52t120.512 81.504q70.016 30.016 147.008 30.016t148-30.016q67.008-28.992 119.488-80.992t81.504-120q30.016-71.008 30.016-148 0-15.008-11.008-26.496t-27.008-11.488z" p-id="2409" fill="#E16C96"></path></svg>