<?xml version="1.0" standalone="no"?><!DOCTYPE svg PUBLIC "-//W3C//DTD SVG 1.1//EN" "http://www.w3.org/Graphics/SVG/1.1/DTD/svg11.dtd"><svg t="1580630232292" class="icon" viewBox="0 0 1024 1024" version="1.1" xmlns="http://www.w3.org/2000/svg" p-id="3127" xmlns:xlink="http://www.w3.org/1999/xlink" width="128" height="128"><defs><style type="text/css"></style></defs><path d="M988.667206 83.435058a870.806269 870.806269 0 0 1-53.739256 273.251325 720.157219 720.157219 0 0 1-172.298293 274.428471 24.336206 24.336206 0 0 0-7.497906 21.623653c2.712553 28.328265 4.887713 56.682121 7.677037 85.010386a168.050333 168.050333 0 0 1-65.178041 158.428447c-53.534536 41.123326-109.193051 79.099068-164.442126 117.714562a51.333785 51.333785 0 0 1-81.453359-41.78867 6697.216474 6697.216474 0 0 1-11.259654-151.979736c-1.637768-25.359811-0.998015-25.590122-24.003534-28.814477a186.961433 186.961433 0 0 1-141.820458-95.732647 223.248226 223.248226 0 0 1-28.149134-94.478732 11.924997 11.924997 0 0 0-13.588355-13.178913 7000.126751 7000.126751 0 0 1-148.294758-10.005737 56.758891 56.758891 0 0 1-39.895001-88.106791c15.354073-27.12553 31.936473-53.585716 47.904709-80.352984 17.222152-28.865658 34.290764-57.782496 51.538506-86.596974a153.259242 153.259242 0 0 1 135.269386-81.68367 822.415348 822.415348 0 0 1 100.082968 9.826607 14.995812 14.995812 0 0 0 15.149353-5.399515 673.813508 673.813508 0 0 1 281.491344-196.250648 755.650719 755.650719 0 0 1 189.034233-46.06222 321.335165 321.335165 0 0 1 98.035758 1.535408c17.759545 3.505847 18.655199 4.299141 21.393342 22.800799a295.693862 295.693862 0 0 1 4.12001 55.888826z m-154.513157 233.023653a146.989662 146.989662 0 0 0-136.139451-151.416753c-77.358939-1.356276-144.302699 58.60138-146.145188 152.286817a148.422709 148.422709 0 0 0 138.800823 149.446314 146.784941 146.784941 0 0 0 143.483816-150.316378zM173.698584 657.49827a27.560562 27.560562 0 0 1 27.995594 23.03111 249.913134 249.913134 0 0 0 112.263866 142.101948 224.937174 224.937174 0 0 0 37.64307 17.606004 30.042803 30.042803 0 0 1 11.387604 51.640867c-25.743663 27.765283-51.794407 55.197894-77.53807 82.937586a25.231861 25.231861 0 0 1-29.863673 8.777412 28.763297 28.763297 0 0 1-18.655199-27.893233c-0.383852-8.521511-0.204721-17.068612-0.383851-25.590122-0.358262-15.686745-0.486212-15.814696-14.023387-11.029343l-86.776105 30.708147a28.277085 28.277085 0 0 1-25.436581-0.767704 29.786902 29.786902 0 0 1-11.950587-36.900956c9.621886-31.706161 19.704394-63.258782 29.531001-94.913764 4.27355-13.716306 4.017649-14.023387-9.877788-14.253698-8.39356-0.153541-16.78712 0-25.15509-0.435032a26.844038 26.844038 0 0 1-25.410991-19.243772 28.609757 28.609757 0 0 1 6.653432-31.271129q40.304442-43.298487 80.839196-86.341072a22.621668 22.621668 0 0 1 18.757559-8.24002z" p-id="3128" fill="#E16C96"></path></svg>