<?xml version="1.0" encoding="utf-8"?>
<!-- Generator: Adobe Illustrator 24.0.0, SVG Export Plug-In . SVG Version: 6.00 Build 0)  -->
<svg version="1.1" id="Layer_1" xmlns="http://www.w3.org/2000/svg" xmlns:xlink="http://www.w3.org/1999/xlink" x="0px" y="0px"
	 viewBox="0 0 128 128" style="enable-background:new 0 0 128 128;" xml:space="preserve">
<style type="text/css">
	.st0{fill:#E16C96;}
</style>
<path class="st0" d="M110.9,18.1c-19.7-2.1-34.7-7.5-44-15.7L64.3,0l-2.7,1.9c-14.9,10.7-29.6,16-44,16h-4.3v58.9
	c0,18.1,16,34.4,48.8,50.1L64,128l1.9-0.8c32.3-13.9,48.8-30.7,48.8-50.1V18.4L110.9,18.1z M94.3,48.7l-26.1,32
	c-1.6,2.1-4,3.2-6.7,3.2c-2.4,0-4.8-1-6.4-2.9l-16-18.1c-1.6-1.6-1.6-4.3,0.3-5.9c1.6-1.6,4.3-1.6,5.9,0.3c0,0,16,18.2,16.5,18
	l26.1-32c1.4-1.6,4-2.1,5.9-0.5C95.4,44.2,95.9,46.8,94.3,48.7z"/>
</svg>
