<?xml version="1.0" encoding="utf-8"?>
<!-- Generator: Adobe Illustrator 24.0.0, SVG Export Plug-In . SVG Version: 6.00 Build 0)  -->
<svg version="1.1" id="Layer_1" xmlns="http://www.w3.org/2000/svg" xmlns:xlink="http://www.w3.org/1999/xlink" x="0px" y="0px"
	 viewBox="0 0 128 128" style="enable-background:new 0 0 128 128;" xml:space="preserve">
<style type="text/css">
	.st0{fill:#E16C96;}
</style>
<path class="st0" d="M109.9,17.4c-19.7-2.1-34.7-7.5-44-15.7l-2.6-2.4l-2.7,1.9c-14.9,10.7-29.6,16-44,16h-4.3v58.9
	c0,18.1,16,34.4,48.8,50.1l1.9,1.1l1.9-0.8c32.3-13.9,48.8-30.7,48.8-50.1V17.7L109.9,17.4z M92.1,51.2c-0.9,2.4-2.8,4.3-5.1,7.4
	L64.2,85.7c-1.6,2.1-4,3.2-6.7,3.2c-2.4,0-4.8-1-6.4-2.9l-16-19.8c-2.1-2.9-3.2-7.9,0.2-10c2.3-1.4,5.4-2.1,9.4,2.1
	c0,0,12.4,16.1,12.9,15.9l24-28.8c1.4-1.6,5.4-3.1,8.6-0.6C92.4,47,92.9,49.2,92.1,51.2z"/>
</svg>
