<?xml version="1.0" standalone="no"?><!DOCTYPE svg PUBLIC "-//W3C//DTD SVG 1.1//EN" "http://www.w3.org/Graphics/SVG/1.1/DTD/svg11.dtd"><svg t="1580611230344" class="icon" viewBox="0 0 1024 1024" version="1.1" xmlns="http://www.w3.org/2000/svg" p-id="6542" xmlns:xlink="http://www.w3.org/1999/xlink" width="128" height="128"><defs><style type="text/css"></style></defs><path d="M630.544983 335.366677H393.875497a58.239381 58.239381 0 0 0-58.239381 58.239381v236.669485c0 32.127659 26.111723 58.239381 58.239381 58.239382h236.669486a58.239381 58.239381 0 0 0 58.175382-58.239382V393.606058a58.239381 58.239381 0 0 0-58.175382-58.239381z" fill="#E16C96" p-id="6543"></path><path d="M983.75723 312.45492A512.95455 512.95455 0 0 0 711.312125 40.073814a514.042538 514.042538 0 0 0-398.331768 0.127999 508.538597 508.538597 0 0 0-162.750271 109.694834 511.162569 511.162569 0 0 0-109.758834 561.402035c25.855725 60.927353 62.719334 115.646771 109.758834 162.622273a509.434587 509.434587 0 0 0 162.750271 109.758833c63.10333 26.751716 130.174617 40.319572 199.229883 40.319572a510.13858 510.13858 0 0 0 361.980154-150.078405A510.714574 510.714574 0 0 0 1024.2048 511.812802a513.402545 513.402545 0 0 0-40.44757-199.357882z m-90.687037 360.316172a411.643626 411.643626 0 0 1-88.575058 131.454603 413.755604 413.755604 0 0 1-131.390604 88.639058 416.251577 416.251577 0 0 1-321.788581 0c-49.215477-20.863778-93.375008-50.623462-131.390604-88.639058s-67.77528-82.175127-88.639059-131.390604a410.939634 410.939634 0 0 1-32.447655-160.95829 411.963623 411.963623 0 0 1 121.086714-292.220895A411.771625 411.771625 0 0 1 512.21024 98.441194c55.615409 0 109.694834 10.879884 160.766292 32.383656a412.795614 412.795614 0 0 1 131.390604 88.703058 413.499607 413.499607 0 0 1 88.703057 453.243184z" fill="#E16C96" p-id="6544"></path></svg>