<?xml version="1.0" standalone="no"?><!DOCTYPE svg PUBLIC "-//W3C//DTD SVG 1.1//EN" "http://www.w3.org/Graphics/SVG/1.1/DTD/svg11.dtd"><svg t="1583589112227" class="icon" viewBox="0 0 1024 1024" version="1.1" xmlns="http://www.w3.org/2000/svg" p-id="1935" xmlns:xlink="http://www.w3.org/1999/xlink" width="64" height="64"><defs><style type="text/css"></style></defs><path d="M512 960C264.533333 960 64 759.466667 64 512S264.533333 64 512 64s448 200.533333 448 448-200.533333 448-448 448z m0-810.666667C311.466667 149.333333 149.333333 311.466667 149.333333 512s162.133333 362.666667 362.666667 362.666667 362.666667-162.133333 362.666667-362.666667S712.533333 149.333333 512 149.333333z" p-id="1936" fill="#E16C96"></path><path d="M661.333333 554.666667c-10.666667 0-21.333333-4.266667-29.866666-12.8L512 422.4l-119.466667 119.466667c-17.066667 17.066667-42.666667 17.066667-59.733333 0-17.066667-17.066667-17.066667-42.666667 0-59.733334l149.333333-149.333333c17.066667-17.066667 42.666667-17.066667 59.733334 0l149.333333 149.333333c17.066667 17.066667 17.066667 42.666667 0 59.733334-8.533333 8.533333-19.2 12.8-29.866667 12.8z" p-id="1937" fill="#E16C96"></path><path d="M512 746.666667c-23.466667 0-42.666667-19.2-42.666667-42.666667V362.666667c0-23.466667 19.2-42.666667 42.666667-42.666667s42.666667 19.2 42.666667 42.666667v341.333333c0 23.466667-19.2 42.666667-42.666667 42.666667z" p-id="1938" fill="#E16C96"></path></svg>