<?xml version="1.0" standalone="no"?><!DOCTYPE svg PUBLIC "-//W3C//DTD SVG 1.1//EN" "http://www.w3.org/Graphics/SVG/1.1/DTD/svg11.dtd"><svg t="1580531606800" class="icon" viewBox="0 0 1024 1024" version="1.1" xmlns="http://www.w3.org/2000/svg" p-id="2815" xmlns:xlink="http://www.w3.org/1999/xlink" width="128" height="128"><defs><style type="text/css"></style></defs><path d="M853.344 204.8c17.056-8.544 25.6-17.056 38.4-17.056 21.344 0 34.144 12.8 38.4 21.344 8.544 12.8 38.4 21.344 51.2 21.344 8.544 0 21.344-29.856 29.856-55.456s8.544-55.456 4.256-59.744c-4.256-4.256-38.4-12.8-46.944-12.8-4.256 4.256-12.8 8.544-29.856 8.544s-34.144-12.8-46.944-25.6c-21.344-21.344-46.944-29.856-72.544-38.4s-55.456-8.544-81.056-8.544c-38.4-4.256-81.056-4.256-119.456 8.544a209.088 209.088 0 0 0-46.944 17.056c-4.256 4.256-17.056 8.544-21.344 8.544-4.256 4.256-4.256 8.544 0 8.544s21.344-4.256 21.344-4.256-21.344 8.544-21.344 17.056c0 4.256 4.256 4.256 4.256 4.256s12.8-4.256 21.344-4.256c17.056 0 42.656-8.544 64-8.544 25.6 0 51.2 8.544 76.8 34.144 38.4 46.944 34.144 106.656 34.144 119.456-8.544 89.6-209.056 635.744-217.6 674.144s-8.544 59.744 38.4 72.544 64 0 72.544-17.056c4.256-29.856 132.256-704 209.056-763.744z m-166.4-42.656L0 268.8l110.944 712.544L477.888 921.6c-4.256-29.856 93.856-285.856 110.944-332.8l-187.744 29.856 25.6-76.8 132.256-21.344 34.144 42.656s8.544-21.344 8.544-29.856l-183.456-226.144c-8.544-12.8-8.544-29.856 4.256-38.4l8.544-8.544c12.8-8.544 29.856-8.544 38.4 4.256l162.144 187.744c34.144-102.4 64-192 64-221.856 4.256-8.544 4.256-38.4-8.544-68.256z m-512 422.4l115.2-21.344-29.856 76.8-76.8 12.8-8.544-68.256z m247.456-217.6l12.8 4.256c17.056 4.256 21.344 21.344 17.056 38.4l-128 341.344-76.8 102.4 8.544-128L384 384c4.256-17.056 21.344-21.344 38.4-17.056z m460.8-119.488c-17.056 17.056-38.4 72.544-81.056 234.656h4.256l12.8 68.256-34.144 4.256c-4.256 21.344-8.544 42.656-17.056 68.256 72.544 38.4 34.144 132.256 29.856 132.256s-4.256 0-4.256-4.256 4.256-17.056-8.544-21.344c-8.544-4.256-25.6-8.544-38.4-17.056-12.8 51.2-25.6 110.944-38.4 174.944l268.8-42.656-89.6-601.6-4.256 4.256z" fill="#E16C96" p-id="2816"></path></svg>